<svg width="52" height="22" viewBox="0 0 52 22" fill="none" xmlns="http://www.w3.org/2000/svg">
<path d="M19.6298 8.97449H11.3453C10.0383 8.97449 8.97494 10.0378 8.97494 11.3448V15.8459L6.82849 17.379C6.65913 17.4999 6.55859 17.6952 6.55859 17.9034C6.55859 18.1117 6.65913 18.307 6.82849 18.4279L9.00079 19.9795C9.17049 21.1212 10.1573 21.9999 11.3453 21.9999H19.6298C20.9368 21.9999 22.0002 20.9365 22.0002 19.6293V11.3448C22.0002 10.0378 20.9368 8.97449 19.6298 8.97449ZM16.8442 18.0313C16.6923 18.0313 16.575 17.9831 16.5405 17.8518L16.278 16.9335H14.6969L14.4347 17.8518C14.4001 17.9831 14.2828 18.0313 14.1309 18.0313C13.8892 18.0313 13.5648 17.8795 13.5648 17.6586C13.5648 17.6447 13.5716 17.6172 13.5785 17.5895L14.9111 13.2469C14.9732 13.0398 15.2286 12.9429 15.4841 12.9429C15.7465 12.9429 16.0019 13.0398 16.064 13.2469L17.3966 17.5895C17.4035 17.6172 17.4103 17.6378 17.4103 17.6586C17.4103 17.8725 17.0859 18.0313 16.8442 18.0313Z" fill="black"/>
<path d="M14.8828 16.2292H16.0843L15.4834 14.1097L14.8828 16.2292Z" fill="black"/>
<path d="M7.68595 11.3451C7.68595 10.4797 7.98858 9.68407 8.49263 9.05682C7.75729 9.05682 7.07498 8.8267 6.51252 8.43578C5.95006 8.82687 5.26776 9.05682 4.53225 9.05682C4.33167 9.05682 4.16885 8.894 4.16885 8.69326C4.16885 8.49251 4.33167 8.32987 4.53225 8.32987C5.04737 8.32987 5.52943 8.18719 5.94217 7.94012C5.44434 7.40284 5.11334 6.70912 5.03327 5.94138H4.53241C4.33167 5.94138 4.16885 5.77874 4.16885 5.57799C4.16885 5.37724 4.33167 5.21443 4.53241 5.21443H6.1493V4.33188C6.1493 4.13097 6.31194 3.96832 6.51269 3.96832C6.71344 3.96832 6.87608 4.13097 6.87608 4.33188V5.21443H8.49297C8.69372 5.21443 8.85653 5.37724 8.85653 5.57799C8.85653 5.77874 8.69372 5.94138 8.49297 5.94138H7.99211C7.91204 6.70912 7.58105 7.40284 7.08321 7.94012C7.49578 8.18753 7.97801 8.32987 8.49297 8.32987C8.68482 8.32987 8.84159 8.47858 8.85519 8.66707C9.50896 8.05879 10.3843 7.68566 11.3456 7.68566H13.0254V6.15388L15.1718 4.62075C15.341 4.4999 15.4416 4.30452 15.4416 4.09639C15.4416 3.88809 15.341 3.69271 15.1718 3.57186L12.9995 2.02027C12.8297 0.878565 11.8429 -0.00012207 10.6549 -0.00012207H2.37052C1.06332 -0.00012207 0 1.0632 0 2.37023V10.6549C0 11.9619 1.06332 13.0253 2.37052 13.0253H7.68595V11.3451Z" fill="black"/>
<path d="M6.51263 7.48602C6.91043 7.07329 7.1805 6.53734 7.25955 5.94165H5.76587C5.84493 6.53734 6.11516 7.07329 6.51263 7.48602Z" fill="black"/>
<path d="M27.8402 16V7.36H33.3602V8.542H29.0942V10.966H32.6402V12.148H29.0942V14.818H33.3602V16H27.8402ZM34.8012 16V7.36H36.0732L40.3272 13.78V7.36H41.5992V16H40.3272L36.0732 9.574V16H34.8012ZM46.8078 16.18C46.2278 16.18 45.6938 16.08 45.2058 15.88C44.7178 15.676 44.2938 15.38 43.9338 14.992C43.5738 14.604 43.2938 14.132 43.0938 13.576C42.8938 13.02 42.7938 12.388 42.7938 11.68C42.7938 10.748 42.9638 9.948 43.3038 9.28C43.6438 8.608 44.1158 8.092 44.7198 7.732C45.3238 7.368 46.0198 7.186 46.8078 7.186C47.8238 7.186 48.6338 7.422 49.2378 7.894C49.8458 8.366 50.2598 9.018 50.4798 9.85L49.2078 10.078C49.0318 9.562 48.7478 9.15 48.3558 8.842C47.9638 8.534 47.4718 8.378 46.8798 8.374C46.2678 8.37 45.7578 8.506 45.3498 8.782C44.9458 9.058 44.6418 9.446 44.4378 9.946C44.2338 10.442 44.1298 11.02 44.1258 11.68C44.1218 12.34 44.2218 12.918 44.4258 13.414C44.6298 13.906 44.9358 14.29 45.3438 14.566C45.7558 14.842 46.2678 14.982 46.8798 14.986C47.3718 14.994 47.7938 14.904 48.1458 14.716C48.5018 14.524 48.7838 14.244 48.9918 13.876C49.1998 13.508 49.3338 13.056 49.3938 12.52H47.7138V11.512H50.7258C50.7338 11.584 50.7398 11.68 50.7438 11.8C50.7478 11.916 50.7498 11.99 50.7498 12.022C50.7498 12.822 50.5958 13.536 50.2878 14.164C49.9798 14.792 49.5318 15.286 48.9438 15.646C48.3558 16.002 47.6438 16.18 46.8078 16.18Z" fill="black"/>
</svg>
